<?xml version="1.0" encoding="UTF-8"?>
<svg id="_レイヤー_2" data-name="レイヤー 2" xmlns="http://www.w3.org/2000/svg" viewBox="0 0 95.3931921 37.2351981">
  <defs>
    <style>
      .cls-1 {
        fill: #fff;
        stroke-width: 0px;
      }
    </style>
  </defs>
  <g id="_レイヤー_1-2" data-name="レイヤー 1">
    <g>
      <g>
        <path class="cls-1" d="m11.1775458,18.3304329h1.8109749c.5924555,0,1.3423534.1017731,1.3423534.7905611v6.2018788s-2.033652.7367992-5.7175619.7367992c-3.6796873,0-8.6133121-1.9957348-8.6133121-7.5268993,0-5.5129932,5.1359645-7.6758103,8.9385379-7.6758103,1.7037728,0,3.8429896.1014284,3.8429896,1.0456516v1.8471685c-1.4461947-1.1617416-2.0289986-1.3679474-4.2241432-1.3679474-2.194369,0-6.1202593,1.4226688-6.1202593,6.0213183,0,4.6041879,5.269364,7.3387901,9.6433661,5.6085616v-3.5257034c0-.7388559-.0429153-2.1555786-.9029453-2.1555786Z"/>
        <path class="cls-1" d="m38.7136715,25.6906691h4.6546726c-1.2892693-.4725856-1.8173519-1.9936666-2.2394387-3.1023986-.4367366-1.1045956-3.8025733-9.1498396-4.180366-10.2652933-.3715881-1.0995112-.9093222-1.0995112-1.3347699-1.0995112h-2.67652c1.2900449.4215698.5869427,1.319086.3752936,1.9439434-.2137149.6370943-4.7114646,11.5777438-4.7114646,11.5777438-1.5547756-.4178642-5.4503299-6.055036-5.4503299-6.055036,5.1949062-1.4727367,4.388305-7.4666512-.684577-7.4666512h-5.8307102c1.1714677.254562,1.0653858,1.4739431,1.0653858,2.4135991v9.9551482c0,1.3683783-.4295841,1.7306595-1.1154537,2.0984558h4.2679202c-1.1714677-.5226535-.8613226-1.7353129-.8613226-2.3063108v-10.7386545h2.3063108c1.2265337,0,2.1349942,1.4752357,2.1349942,2.4791785,0,1.6204412-1.2825477,2.2562313-2.5663018,2.7321031-1.2800486.4675012-.5857338,1.5215981,0,2.369822.5991772.8386585,2.3050182,3.2046773,3.3194744,4.3618513,1.0199692,1.1532846,1.9145555,1.1020103,2.4093743,1.1020103h3.8514347c-1.4933303-.4725856-.6985373-1.626732-.4902492-2.2006598.2137987-.5916799,1.1840493-3.0582884,1.1840493-3.0582884h5.7671965s.6972447,1.7853923,1.3381308,3.3674855c.6437298,1.5846784.1619235,1.7896034-.5327335,1.8914626Zm-5.9897922-6.9407346l2.2019524-5.6359537,2.3412118,5.6359537h-4.5431642Z"/>
        <path class="cls-1" d="m85.5335994,25.6906691h4.661824c-1.2846121-.4725856-1.8202818-1.9936666-2.2389216-3.1023986-.4288048-1.1045956-3.8013668-9.1498396-4.1737305-10.2652933-.377448-1.0995112-.9093222-1.0995112-1.3389063-1.0995112h-2.6710875c1.285905.4215698.586592,1.319086.3765863,1.9439434-.2205263.6370943-4.7076765,11.5777438-4.7076765,11.5777438-.301269.6825087-.7405909.698882-1.0077345.9455159h3.8404043c-1.4975551-.4725856-.6900922-1.626732-.4834437-2.2006598.2061314-.5916799,1.1748285-3.0582884,1.1748285-3.0582884h5.7827104s.6976756,1.7853923,1.3351146,3.3674855c.6324409,1.5846784.1539953,1.7896034-.5499674,1.8914626Zm-5.9753986-6.9407346l2.1846276-5.6359537,2.3606012,5.6359537h-4.5452289Z"/>
        <path class="cls-1" d="m69.0824639,25.9645344c.5360968-.4830128,1.0195405-.8482239,1.0195405-2.5330495v-9.9450542c0-.7890215-.0411885-1.682746-1.0195405-2.0084026h4.1252999c-.4253615.3736563-.933279.8449493-.933279,1.8998217v10.0536352c0,.8958042-.1951872,2.2141146.9985137,2.5330495h-4.1905347Z"/>
        <path class="cls-1" d="m46.9423804,14.59094s-.052567,7.9442465-.052567,8.8405448c0,.8958042.1178017,2.2141146,1.2901311,2.5330495h-3.9095169c.5390268-.4830128.9678353-.8482239.9678353-2.5330495,0-1.6792875.1001358-9.1620651.1001358-9.9450542,0-.7890215-.1001358-1.682746-1.0679711-2.0084026h2.9997638l8.9780922,11.1102425v-9.0534956c0-.5781504.1123756-1.6830907-1.1166601-2.1043158h4.0095665c-.483096.3732254-1.1874101.5238599-1.1874101,2.0559714v13.0588394s-1.1075255.2027706-2.9295309-1.9566112c-1.8214883-2.1543836-8.0818686-9.9977188-8.0818686-9.9977188Z"/>
        <path class="cls-1" d="m72.4950075,37.1610384c-11.7612111-9.7532394-16.2555139-21.2358456-.172523-36.9114856.5002512-.4818184.9824851-.1939927.5857338.2554237-7.0560373,7.925805-14.9081623,20.619778-.164164,36.1683956.2323287.248702.1396902.7506734-.2490467.4876663Z"/>
      </g>
      <path class="cls-1" d="m93.4164446,25.8162344c-1.0899811,0-1.9767475-.8867664-1.9767475-1.9767475s.8867664-1.9767475,1.9767475-1.9767475,1.9767475.8867664,1.9767475,1.9767475-.8867664,1.9767475-1.9767475,1.9767475Zm0-3.7024794c-.9516039,0-1.7257319.774128-1.7257319,1.7257319s.774128,1.7257319,1.7257319,1.7257319,1.7257319-.774128,1.7257319-1.7257319-.774128-1.7257319-1.7257319-1.7257319Z"/>
      <path class="cls-1" d="m93.8932271,24.9119411c-.0436336-.040692-.0698627-.0726817-.0698627-.22687v-.2560408c0-.1512467-.0464526-.3490685-.2734452-.3490685h-.5439487v.8319793h-.3927021v-2.1235818h1.0006304c.3956437,0,.654626.244397.654626.5759385,0,.1397255-.0465752.2676846-.1309007.3636539-.0815065.0931503-.1513692.1309007-.3316641.1715927.206524.0291708.4072874.0902087.4072874.488794v.2152262c0,.2124072.0785649.2676846.1366613.3083765h-.4566816Zm-.3316641-1.7919177h-.5555925v.6282743h.491613c.2181678,0,.3520101-.1133737.3520101-.3315415,0-.1920612-.1134963-.2967327-.2880305-.2967327Z"/>
    </g>
  </g>
</svg>